<svg width="29" height="30" viewBox="0 0 29 30" fill="none" xmlns="http://www.w3.org/2000/svg">
<g clip-path="url(#clip0_69_8375)">
<path fill-rule="evenodd" clip-rule="evenodd" d="M9.65153 5.56943C9.65153 4.30466 10.154 3.09168 11.0483 2.19735C11.9426 1.30302 13.1556 0.800587 14.4204 0.800587C15.6852 0.800587 16.8981 1.30302 17.7925 2.19735C18.6868 3.09168 19.1892 4.30466 19.1892 5.56943C19.1892 6.83421 18.6868 8.04718 17.7925 8.94151C16.8981 9.83585 15.6852 10.3383 14.4204 10.3383C13.1556 10.3383 11.9426 9.83585 11.0483 8.94151C10.154 8.04718 9.65153 6.83421 9.65153 5.56943ZM5.03924 13.3809C6.01 12.4593 7.29745 11.9455 8.63596 11.9455C9.97447 11.9455 11.2619 12.4593 12.2327 13.3809L12.2533 13.4015L14.4204 15.5686L16.5895 13.4015L16.6101 13.3809C17.5807 12.4605 18.8673 11.9475 20.2048 11.9475C21.5423 11.9475 22.8289 12.4605 23.7994 13.3809C24.2815 13.8381 24.6656 14.3886 24.9282 14.9989C25.1908 15.6092 25.3266 16.2665 25.3271 16.9309C25.3277 17.5953 25.1931 18.2529 24.9316 18.8637C24.67 19.4744 24.2869 20.0256 23.8056 20.4837L15.1372 28.909C14.945 29.0958 14.6875 29.2004 14.4193 29.2004C14.1512 29.2004 13.8937 29.0958 13.7014 28.909L5.03512 20.4837C4.55403 20.0258 4.17106 19.4749 3.90951 18.8644C3.64796 18.2539 3.51329 17.5966 3.51367 16.9324C3.51406 16.2682 3.6495 15.6111 3.91176 15.0009C4.17401 14.3907 4.55762 13.8382 5.03924 13.3809Z" fill="#3B9AB8"/>
</g>
<defs>
<clipPath id="clip0_69_8375">
<rect width="28.8397" height="28.8397" fill="white" transform="translate(0 0.580165)"/>
</clipPath>
</defs>
</svg>
